<?xml version="1.0" encoding="UTF-8"?>
<svg id="Camada_1" data-name="Camada 1" xmlns="http://www.w3.org/2000/svg" viewBox="0 0 1833.49 2801.7">
  <defs>
    <style>
      .cls-1 {
        fill: #e20613;
      }
    </style>
  </defs>
  <path class="cls-1" d="M1278.22,1821.71c50.09-35.91,98.15-79.99,142.18-134.17,318.07-391.47,260.98-734.01,100.59-1014.02C1370.39,410.61,975.34,104.56,423.6,353.93c-13.72,6.2-7.12,26.97,7.66,24.13,142.16-27.36,392-40.37,627.57,121.47,356.13,244.67,342.54,589.93,342.54,589.93,0,0,9.25,314.4-245.4,543.25l-316.34-489.09c-7.4-11.44-3.82-26.73,7.88-33.71l117.64-70.13c3.84-2.29,6.97-5.61,9.03-9.58l68.54-132.18c3.94-7.59,3.54-16.7-1.03-23.93l-89.82-141.83c-5.26-8.3-15.04-12.57-24.7-10.77l-174.95,32.49c-2.76.51-5.4,1.5-7.82,2.93l-413.2,243.54c-2.66,1.57-5,3.64-6.88,6.1l-124.02,161.99c-5.88,7.68-6.58,18.14-1.79,26.54l83.83,146.69c5.13,8.98,15.44,13.68,25.59,11.65l202.84-40.57c2.1-.42,4.13-1.12,6.04-2.07l83.04-41.52c11.27-5.64,24.98-1.61,31.42,9.22l293.24,493.37c-83.54,22.8-273.56,49.42-536.15-66.02-7.2-3.16-15.58.74-17.55,8.35l-187.36,722.48c-1.22,4.69.23,9.61,3.9,12.78,25.21,21.71,130.57,101.9,289.64,80.01,5.6-.77,10.11-5.26,10.96-10.85l84.96-556.64c1.1-7.2,7.92-12.05,15.05-10.6,49.56,10.07,234.05,40.65,436.09-12.05l350.13,589.09c5.66,9.53,17.04,13.92,27.65,10.72,45.76-13.8,166.33-56.52,230.66-139.39,6.36-8.19,7.03-19.46,1.4-28.17l-355.65-549.85Z"/>
</svg>